<svg id="Group_788" data-name="Group 788" xmlns="http://www.w3.org/2000/svg" width="24" height="24" viewBox="0 0 24 24" class="social-item-icon"><rect id="Rectangle_308" data-name="Rectangle 308" width="24" height="24" fill="none"></rect><g id="Group_781" data-name="Group 781" transform="translate(3 1.589)"><rect id="Rectangle_305" data-name="Rectangle 305" width="19" height="19" transform="translate(0 0.411)" fill="none"></rect><path id="Path_3806" data-name="Path 3806" d="M18.67,8.385a4.24,4.24,0,0,0-2.037,3.579,4.148,4.148,0,0,0,2.518,3.81,9.71,9.71,0,0,1-1.285,2.675c-.8,1.157-1.651,2.328-2.93,2.328s-1.614-.759-3.086-.759c-1.446,0-1.952.782-3.121.782S6.74,19.717,5.8,18.4a11.583,11.583,0,0,1-1.965-6.243c0-3.653,2.374-5.607,4.725-5.607,1.243,0,2.285.82,3.062.82.736,0,1.892-.868,3.315-.868A4.426,4.426,0,0,1,18.67,8.385M11.715,6.3a1.542,1.542,0,0,1-.253-.023,1.718,1.718,0,0,1-.037-.34,4.093,4.093,0,0,1,1.036-2.555,4.183,4.183,0,0,1,2.76-1.429,1.8,1.8,0,0,1,.037.375,4.256,4.256,0,0,1-.988,2.628A3.659,3.659,0,0,1,11.715,6.3Z" transform="translate(-2.678 -1.952)"></path></g></svg>