<svg data-v-edfbec8c="" id="Group_817" data-name="Group 817" xmlns="http://www.w3.org/2000/svg" width="24" height="24" viewBox="0 0 24 24" class="social-item-icon"><g id="Group_816" data-name="Group 816"><g id="Group_786" data-name="Group 786" transform="translate(2.728 2.881)"><path id="Exclusion_1" data-name="Exclusion 1" d="M5776.945-352.489h-2.015a6.422,6.422,0,0,1-3.4-.59,3.99,3.99,0,0,1-1.669-1.667,6.448,6.448,0,0,1-.589-3.4v-7.075a6.44,6.44,0,0,1,.589-3.4,4.014,4.014,0,0,1,1.669-1.669,6.441,6.441,0,0,1,3.4-.588H5782a6.438,6.438,0,0,1,3.4.588,4.015,4.015,0,0,1,1.669,1.669,6.425,6.425,0,0,1,.59,3.4v7.075a6.433,6.433,0,0,1-.59,3.4,3.991,3.991,0,0,1-1.669,1.667,6.419,6.419,0,0,1-3.4.59h-2.144v-6.626h2.179l.407-2.689h-2.584V-363.6a1.4,1.4,0,0,1,1.4-1.4h1.28v-2.282a12.034,12.034,0,0,0-1.975-.194c-.2,0-.391.009-.56.025a3.223,3.223,0,0,0-2.9,2.346,5.7,5.7,0,0,0-.135,1.5c.016.43.007,1.383,0,1.773v.021H5774.6v2.689h2.341v6.626Z" transform="translate(-5769.272 370.881)" fill="#1877f2" stroke="rgba(0,0,0,0)" stroke-miterlimit="10" stroke-width="1"></path></g><rect id="Rectangle_308" data-name="Rectangle 308" width="24" height="24" fill="none"></rect></g></svg>