<svg data-v-31ac0f3c="" width="36" height="36" viewBox="0 0 40 40" version="1.1" xmlns="http://www.w3.org/2000/svg" xmlns:xlink="http://www.w3.org/1999/xlink"><title>Android</title> <desc></desc> <defs></defs> <g id="Icons/platform/img_android_big_active" stroke="none" stroke-width="1" fill="none" fill-rule="evenodd"><rect id="blue-background" fill-opacity="0" fill="#FFFFFF" x="0" y="0" width="41" height="41"></rect> <circle id="Oval" fill="#FF9800" cx="20" cy="20" r="20"></circle> <path d="M14.0006292,15.9831123 C14.0006292,13.9533464 15.14097,12.1738898 16.8524409,11.1796912 L15.9037669,9.43723227 C15.7889276,9.226307 15.863765,8.96055277 16.0709385,8.84363381 C16.2781121,8.72671486 16.5391394,8.80290742 16.6539787,9.0138327 L17.6265911,10.8002601 C18.3559082,10.5042627 19.1600813,10.340248 20.0050175,10.340248 C20.8499516,10.340248 21.6541237,10.504263 22.383433,10.8002557 L23.3560562,9.0138327 C23.4708956,8.80290742 23.7319228,8.72671486 23.9390647,8.84363381 C24.14627,8.96055277 24.2211073,9.226307 24.106268,9.43723227 L23.157583,11.1796878 C23.9703785,11.6518265 24.654384,12.30111 25.1485683,13.0701729 C25.1552632,13.0805921 25.1618348,13.0908937 25.168299,13.1011005 C25.7025506,13.9446335 26.0094057,14.9301956 26.0094057,15.9831123 C26.0094057,15.9977408 26.0093464,16.0123564 26.0092283,16.0269571 C26.0093464,16.0347241 26.0094057,16.0425056 26.0094057,16.0503012 L26.0094057,16.1020644 L14.0006292,16.1020644 L14.0006292,16.0502689 C14.0006292,16.0424773 14.0006885,16.0346997 14.0008065,16.0269366 C14.0006884,16.0123427 14.0006292,15.997734 14.0006292,15.9831123 Z M26.0059464,25.8868782 C26.0059464,26.7030842 25.3560249,27.3647751 24.5543367,27.3647751 L23.8285002,27.3647751 L23.8285002,30.3877254 C23.8285002,31.2781554 23.1195267,32 22.2449347,32 C21.3703427,32 20.6613692,31.2781554 20.6613692,30.3877254 L20.6613692,27.3647751 L19.3417154,27.3647751 L19.3417154,30.3877254 C19.3417154,31.2781554 18.6327102,32 17.7581499,32 C16.8835896,32 16.1745844,31.2781554 16.1745844,30.3877254 L16.1745844,27.3647751 L15.4487796,27.3647751 C14.6470914,27.3647751 13.9971699,26.7030842 13.9971699,25.8868782 L13.9971699,16.900545 L26.0059464,16.900545 L26.0059464,25.8868782 Z M13.167131,18.1614818 L13.167131,23.8715027 C13.167131,24.7619326 12.4581575,25.483745 11.5835655,25.483745 C10.7089736,25.483745 10,24.7619326 10,23.8715027 L10,18.1614818 C10,17.2710841 10.7089736,16.5492395 11.5835655,16.5492395 C12.4581258,16.5492395 13.167131,17.2710841 13.167131,18.1614818 Z M17.5861001,13.4310404 C17.5861001,13.1704877 17.3748805,12.959268 17.1143278,12.959268 C16.8537751,12.959268 16.6425554,13.1704877 16.6425554,13.4310404 C16.6425554,13.691593 16.8537751,13.9028127 17.1143278,13.9028127 C17.3748805,13.9028127 17.5861001,13.691593 17.5861001,13.4310404 Z M30,18.1614818 L30,23.8715027 C30,24.7619326 29.2909947,25.483745 28.4164028,25.483745 C27.5418425,25.483745 26.8328373,24.7619326 26.8328373,23.8715027 L26.8328373,18.1614818 C26.8328373,17.2710841 27.5418425,16.5492395 28.4164028,16.5492395 C29.2909947,16.5492395 30,17.2710841 30,18.1614818 Z M23.3605926,13.4310404 C23.3605926,13.1704877 23.1493729,12.959268 22.8888202,12.959268 C22.6282675,12.959268 22.4170479,13.1704877 22.4170479,13.4310404 C22.4170479,13.691593 22.6282675,13.9028127 22.8888202,13.9028127 C23.1493729,13.9028127 23.3605926,13.691593 23.3605926,13.4310404 Z" id="Oval" fill="#FFFFFF"></path></g></svg>