<svg data-v-588758f2="" width="197" height="104" viewBox="0 0 197 104" version="1.1" xmlns="http://www.w3.org/2000/svg" xmlns:xlink="http://www.w3.org/1999/xlink" class="go-premium-left"><defs><path d="M44.5517459,-4.26325641e-14 L43.9066505,0.234795536 C41.4847536,1.11629391 40.2360139,3.79422488 41.1175122,6.21612177 C41.9990106,8.63801865 44.6769416,9.88675837 47.0988385,9.00526 L71.840587,-3.97829917e-14 L97.1340778,-4.06711701e-14 C96.6168306,0.648985567 95.9199851,1.16814169 95.0830391,1.47276512 L35.2559446,23.2480468 C32.8340477,24.1295451 31.5853079,26.8074761 32.4668063,29.229373 C33.3483047,31.6512699 36.0262357,32.9000096 38.4481326,32.0185112 L84.1798401,15.3735309 C86.601737,14.4920325 89.279668,15.7407722 90.1611663,18.1626691 C91.0426647,20.584566 89.793925,23.262497 87.3720258,24.1439962 L68.2649448,31.0984049 C65.8430479,31.9799033 64.5943082,34.6578343 65.4758066,37.0797312 C66.357305,39.5016281 69.0352359,40.7503678 71.4571328,39.8688694 L118.754995,22.6538555 C121.176892,21.7723571 123.854823,23.0210969 124.736321,25.4429938 C125.617819,27.8648906 124.36908,30.5428216 121.94718,31.4243208 L67.7582416,51.1474816 C65.3363447,52.02898 64.087605,54.7069109 64.9691034,57.1288078 C65.8506018,59.5507047 68.5285327,60.7994444 70.9504296,59.917946 L111.043981,45.3250866 C113.465878,44.4435882 116.143809,45.6923279 117.025308,48.1142248 C117.906806,50.5361217 116.658066,53.2140527 114.236167,54.0955519 L84.1660056,65.0401956 C81.7441087,65.921694 80.495369,68.599625 81.3768673,71.0215219 C82.2583657,73.4434188 84.9362967,74.6921585 87.3581936,73.8106601 L105.525584,67.1982707 C107.947481,66.3167723 110.625412,67.565512 111.50691,69.9874089 C112.388409,72.4093058 111.139669,75.0872367 108.71777,75.968736 L78.9608393,86.799373 C76.5389424,87.6808714 75.2902026,90.3588023 76.171701,92.7806992 C77.0531994,95.2025961 79.7311304,96.4513358 82.1530273,95.5698375 L123.499503,80.5209512 C125.921399,79.6394528 128.59933,80.8881925 129.480829,83.3100894 C130.362327,85.7319863 129.113587,88.4099172 126.691688,89.2914164 L66.5513628,111.180705 C64.129466,112.062203 62.8807262,114.740134 63.7622246,117.162031 C64.2713418,118.560819 65.3797027,119.568272 66.6918815,120 L27.1942129,120 L0,45.2845141 L0,-4.26325641e-14 L44.5517459,-4.26325641e-14 Z M69.6025481,120 C69.6496352,119.984518 69.696641,119.968243 69.7435509,119.951169 L115.788489,103.192182 C118.210386,102.310684 120.888317,103.559424 121.769816,105.98132 C122.651314,108.403217 121.402574,111.081148 118.980675,111.962648 L99.2471322,119.14507 C98.6968886,119.345342 98.2072006,119.638342 97.7892923,120 L69.6025481,120 Z M124.187072,120 L150.363644,110.472507 C152.785541,109.591008 155.463472,110.839748 156.34497,113.261645 C157.226469,115.683542 155.977729,118.361473 153.55583,119.242972 L151.475913,120 L124.187072,120 Z" id="path-1"></path> <path d="M44.4608448,-1.42108547e-14 L35.5733171,3.23479554 C33.1514203,4.11629391 31.9026805,6.79422488 32.7841789,9.21612177 C33.6656773,11.6380187 36.3436083,12.8867584 38.7655051,12.00526 L71.7496859,-1.16943492e-14 L89.8207303,-1.39147952e-14 C89.8572291,1.93862888 88.6736277,3.77251482 86.7497058,4.47276512 L26.9226112,26.2480468 C24.5007143,27.1295451 23.2519746,29.8074761 24.133473,32.229373 C25.0149714,34.6512699 27.6929023,35.9000096 30.1147992,35.0185112 L75.8465068,18.3735309 C78.2684037,17.4920325 80.9463346,18.7407722 81.827833,21.1626691 C82.7093314,23.584566 81.4605917,26.262497 79.0386925,27.1439962 L59.9316115,34.0984049 C57.5097146,34.9799033 56.2609749,37.6578343 57.1424733,40.0797312 C58.0239716,42.5016281 60.7019026,43.7503678 63.1237995,42.8688694 L110.421661,25.6538555 C112.843558,24.7723571 115.521489,26.0210969 116.402988,28.4429938 C117.284486,30.8648906 116.035746,33.5428216 113.613847,34.4243208 L59.4249083,54.1474816 C57.0030114,55.02898 55.7542717,57.7069109 56.63577,60.1288078 C57.5172684,62.5507047 60.1951994,63.7994444 62.6170963,62.917946 L102.710648,48.3250866 C105.132545,47.4435882 107.810476,48.6923279 108.691974,51.1142248 C109.573473,53.5361217 108.324733,56.2140527 105.902834,57.0955519 L75.8326722,68.0401956 C73.4107753,68.921694 72.1620356,71.599625 73.043534,74.0215219 C73.9250324,76.4434188 76.6029634,77.6921585 79.0248602,76.8106601 L97.1922509,70.1982707 C99.6141478,69.3167723 102.292079,70.565512 103.173577,72.9874089 C104.055076,75.4093058 102.806336,78.0872367 100.384437,78.968736 L70.6275059,89.799373 C68.205609,90.6808714 66.9568693,93.3588023 67.8383677,95.7806992 C68.7198661,98.2025961 71.397797,99.4513358 73.8196939,98.5698375 L115.166169,83.5209512 C117.588066,82.6394528 120.265997,83.8881925 121.147495,86.3100894 C122.028994,88.7319863 120.780254,91.4099172 118.358355,92.2914164 L58.2180295,114.180705 C55.8500233,115.042589 54.6035463,117.621848 55.3732011,120.000001 L17.7689689,120 L0,71.1801593 L0,-1.42108547e-14 L44.4608448,-1.42108547e-14 Z M69.5184884,120 L107.455156,106.192182 C109.877053,105.310684 112.554984,106.559424 113.436482,108.98132 C114.317981,111.403217 113.069241,114.081148 110.647342,114.962648 L96.8073295,120 L69.5184884,120 Z M124.096171,120.000001 L142.030311,113.472507 C144.452207,112.591008 147.130138,113.839748 148.011637,116.261645 C148.47569,117.536622 148.349378,118.882555 147.772332,120.000001 L124.096171,120.000001 Z" id="path-3"></path> <path d="M44.6965502,0 L27.7575248,6.16530106 C25.3356279,7.04679943 24.0868882,9.7247304 24.9683865,12.1466273 C25.8498849,14.5685242 28.5278159,15.8172639 30.9497128,14.9357655 L71.9853913,2.96059473e-15 L80.8988695,2.36847579e-15 C81.2464029,0.409966001 81.5284879,0.887377747 81.7230539,1.42194358 C82.6045523,3.84384047 81.3558126,6.52177144 78.9339157,7.40326981 L19.1068188,29.1785523 C16.684922,30.0600506 15.4361822,32.7379816 16.3176806,35.1598785 C17.199179,37.5817754 19.87711,38.8305151 22.2990069,37.9490167 L68.0307144,21.3040364 C70.4526113,20.422538 73.1305423,21.6712778 74.0120406,24.0931747 C74.893539,26.5150715 73.6447993,29.1930025 71.2229001,30.0745017 L52.1158191,37.0289105 C49.6939222,37.9104088 48.4451825,40.5883398 49.3266809,43.0102367 C50.2081793,45.4321336 52.8861102,46.6808733 55.3080071,45.7993749 L102.605869,28.584361 C105.027766,27.7028627 107.705697,28.9516024 108.587195,31.3734993 C109.468694,33.7953962 108.219954,36.4733271 105.798055,37.3548263 L51.6091159,57.0779871 C49.187219,57.9594855 47.9384793,60.6374165 48.8199777,63.0593133 C49.7014761,65.4812102 52.379407,66.7299499 54.8013039,65.8484516 L94.8948557,51.2555921 C97.3167526,50.3740937 99.9946836,51.6228335 100.876182,54.0447303 C101.75768,56.4666272 100.508941,59.1445582 98.0870437,60.0260566 L68.0168799,70.9707012 C65.594983,71.8521995 64.3462433,74.5301305 65.2277416,76.9520274 C66.10924,79.3739243 68.787171,80.622664 71.2090679,79.7411656 L89.3764585,73.1287762 C91.7983554,72.2472778 94.4762864,73.4960175 95.3577848,75.9179144 C96.2392831,78.3398113 94.9905434,81.0177423 92.5686465,81.8992406 L62.8117136,92.7298785 C60.3898167,93.6113769 59.1410769,96.2893079 60.0225753,98.7112048 C60.9040737,101.133102 63.5820047,102.381841 66.0039016,101.500343 L107.350377,86.4514567 C109.772274,85.5699583 112.450205,86.818698 113.331703,89.2405949 C114.213201,91.6624918 112.964462,94.3404228 110.542565,95.2219211 L50.4022371,117.11121 C49.0179943,117.615034 48.0169903,118.705703 47.5779226,120 L0,120 L0,0 L44.6965502,0 Z M69.7541938,120 L99.6393636,109.122688 C102.06126,108.241189 104.739191,109.489929 105.62069,111.911826 C106.502188,114.333723 105.253448,117.011654 102.831549,117.893153 L97.0430348,120 L69.7541938,120 Z M124.331876,120 L134.214518,116.403012 C136.636415,115.521514 139.314346,116.770254 140.195844,119.192151 C140.293056,119.459238 140.364361,119.729438 140.411041,120 L124.331876,120 Z" id="path-5"></path></defs> <g id="Images/img_store_gopremium_left" stroke="none" stroke-width="1" fill="none" fill-rule="evenodd"><rect id="Rectangle" fill-opacity="0" fill="#FFFFFF" x="0" y="0" width="197" height="104"></rect> <g id="Group" opacity="0.5"><g id="Group-5"><mask id="mask-2" fill="white"><use xlink:href="#path-1"></use></mask> <use id="Combined-Shape" fill="#F1602E" xlink:href="#path-1"></use> <g id="Colors/O600" mask="url(#mask-2)" fill="#EA8939"><rect id="O600" x="0" y="0" width="197" height="104"></rect></g></g> <g id="Group-4"><mask id="mask-4" fill="white"><use xlink:href="#path-3"></use></mask> <use id="Combined-Shape" fill="#F3772D" xlink:href="#path-3"></use> <g id="Colors/O500" mask="url(#mask-4)" fill="#F29B4C"><rect id="O500" x="0" y="0" width="197" height="104"></rect></g></g> <g id="Group-3"><mask id="mask-6" fill="white"><use xlink:href="#path-5"></use></mask> <use id="Combined-Shape" fill="#FF9C24" xlink:href="#path-5"></use> <g id="Colors/O400" mask="url(#mask-6)" fill="#F7AB6D"><rect id="O400" x="0" y="0" width="197" height="104"></rect></g></g></g></g></svg>