<svg data-v-0698e127="" data-v-c65906cc="" xmlns="http://www.w3.org/2000/svg" xmlns:xlink="http://www.w3.org/1999/xlink" width="24" height="24" viewBox="0 0 24 24" aria-labelledby="ic_calendar_empty" version="1.1"><defs data-v-0698e127=""></defs> <g data-v-0698e127="" id="Icons/account/ic_account" stroke="none" stroke-width="1" fill="rgba(0,0,0,0.54)" fill-rule="evenodd"><rect data-v-0698e127="" id="blue-background" fill-opacity="0" fill="#FFFFFF" x="0" y="0" width="24" height="24"></rect> <path data-v-c65906cc="" d="M16,1 L16,3 L8,3 L8,1 L6,1 L6,3 L5,3 C3.895,3 3.01,3.895 3.01,5 L3,19 C3,20.105 3.895,21 5,21 L19,21 C20.105,21 21,20.105 21,19 L21,5 C21,3.895 20.105,3 19,3 L18,3 L18,1 L16,1 L16,1 Z M5,19 L5,8 L19,8 L19,19 L5,19 Z" id="Shape" data-v-0698e127=""></path></g></svg>