<svg data-v-0698e127="" data-v-e5c19db8="" xmlns="http://www.w3.org/2000/svg" xmlns:xlink="http://www.w3.org/1999/xlink" width="24" height="24" viewBox="0 0 24 24" aria-labelledby="test" version="1.1"><defs data-v-0698e127=""></defs> <g data-v-0698e127="" id="Icons/account/ic_account" stroke="none" stroke-width="1" fill="#7C7C7C" fill-rule="evenodd"><rect data-v-0698e127="" id="blue-background" fill-opacity="0" fill="#FFFFFF" x="0" y="0" width="24" height="24"></rect> <path data-v-e5c19db8="" d="M15,15 L8,15 L8,8 L11.5,8 L11.5,7 L8,7 C7.4475,7 7,7.4475 7,8 L7,15 C7,15.5525 7.4475,16 8,16 L15,16 C15.5525,16 16,15.5525 16,15 L16,11.5 L15,11.5 L15,15 L15,15 Z M12.5,7 L12.5,8 L14.2925,8 L9.3775,12.915 L10.085,13.6225 L15,8.7075 L15,10.5 L16,10.5 L16,7 L12.5,7 L12.5,7 Z" data-v-0698e127=""></path></g></svg>