<svg data-v-0698e127="" data-v-e5c19db8="" xmlns="http://www.w3.org/2000/svg" xmlns:xlink="http://www.w3.org/1999/xlink" width="24" height="24" viewBox="0 0 24 24" aria-labelledby="test" version="1.1"><defs data-v-0698e127=""></defs> <g data-v-0698e127="" id="Icons/account/ic_account" stroke="none" stroke-width="1" fill="#BDBDBD" fill-rule="evenodd"><rect data-v-0698e127="" id="blue-background" fill-opacity="0" fill="#FFFFFF" x="0" y="0" width="24" height="24"></rect> <path data-v-e5c19db8="" d="M12,22 C6.4771525,22 2,17.5228475 2,12 C2,6.4771525 6.4771525,2 12,2 C17.5228475,2 22,6.4771525 22,12 C22,17.5228475 17.5228475,22 12,22 Z M10.9369687,14.4494861 L12.8231233,14.4494861 C12.8286627,14.0340315 12.882671,13.6615127 12.9851499,13.3319187 C13.0876287,13.0023247 13.2911984,12.6990473 13.5958651,12.4220776 C13.8617561,12.1728048 14.1193341,11.9207661 14.3686069,11.6659539 C14.6178797,11.4111417 14.8394522,11.1452547 15.033331,10.8682849 C15.2272099,10.5913152 15.3823106,10.294962 15.4986379,9.97921643 C15.6149652,9.6634709 15.673128,9.3228032 15.673128,8.95720311 C15.673128,8.45311813 15.5941928,8.00166418 15.43632,7.60282772 C15.2784473,7.20399126 15.047181,6.86609321 14.7425142,6.58912344 C14.4378475,6.31215368 14.0667136,6.10165981 13.6291013,5.95763553 C13.1914891,5.81361125 12.692951,5.7416002 12.1334721,5.7416002 C11.6238477,5.7416002 11.1516213,5.80945677 10.7167788,5.94517196 C10.2819363,6.08088714 9.90249338,6.28307204 9.57843876,6.55173271 C9.25438413,6.82039339 8.99957577,7.15275212 8.81400602,7.54881889 C8.62843628,7.94488565 8.53288315,8.40326374 8.52734375,8.9239669 L10.5464433,8.9239669 C10.5464433,8.65807592 10.5921426,8.43096412 10.6835426,8.24262468 C10.7749426,8.05428524 10.8954227,7.8991845 11.0449863,7.7773178 C11.19455,7.6554511 11.363499,7.56682211 11.5518385,7.51142815 C11.7401779,7.4560342 11.9340538,7.42833764 12.1334721,7.42833764 C12.6320177,7.42833764 13.0100757,7.56543562 13.2676576,7.83963569 C13.5252395,8.11383576 13.6540285,8.51128141 13.6540285,9.03198457 C13.6540285,9.27017857 13.618023,9.48621175 13.5460108,9.68009058 C13.4739987,9.87396942 13.3756759,10.0567667 13.2510395,10.228488 C13.1264031,10.4002092 12.982381,10.5677734 12.8189688,10.7311856 C12.6555567,10.8945978 12.4796835,11.0677013 12.2913441,11.2505013 C12.0420713,11.4942347 11.8315774,11.7241162 11.6598561,11.9401526 C11.4881349,12.156189 11.3482673,12.3846856 11.240249,12.6256493 C11.1322308,12.866613 11.0546805,13.1325 11.0075956,13.4233183 C10.9605107,13.7141365 10.9369687,14.056189 10.9369687,14.4494861 Z M10.7957148,17.0336011 C10.7957148,17.3382679 10.8940376,17.5930762 11.0906861,17.7980338 C11.2873347,18.0029915 11.5684548,18.1054687 11.9340548,18.1054687 C12.2996549,18.1054687 12.5821599,18.0029915 12.7815781,17.7980338 C12.9809963,17.5930762 13.0807039,17.3382679 13.0807039,17.0336011 C13.0807039,16.878498 13.0543922,16.7344759 13.001768,16.6015304 C12.9491437,16.468585 12.874363,16.3522594 12.7774236,16.2525503 C12.6804841,16.1528412 12.5613889,16.0752908 12.4201344,16.0198968 C12.2788798,15.9645029 12.1168549,15.9368063 11.9340548,15.9368063 C11.7512548,15.9368063 11.5892299,15.9645029 11.4479753,16.0198968 C11.3067208,16.0752908 11.1876255,16.1528412 11.0906861,16.2525503 C10.9937467,16.3522594 10.9203508,16.468585 10.8704963,16.6015304 C10.8206417,16.7344759 10.7957148,16.878498 10.7957148,17.0336011 Z" data-v-0698e127=""></path></g></svg>