<svg data-v-0698e127="" data-v-798ea20e="" xmlns="http://www.w3.org/2000/svg" xmlns:xlink="http://www.w3.org/1999/xlink" width="24" height="24" viewBox="0 0 24 24" aria-labelledby="ic_account" version="1.1"><defs data-v-0698e127=""></defs> <g data-v-0698e127="" id="Icons/account/ic_account" stroke="none" stroke-width="1" fill="#747474" fill-rule="evenodd"><rect data-v-0698e127="" id="blue-background" fill-opacity="0" fill="#FFFFFF" x="0" y="0" width="24" height="24"></rect> <path data-v-798ea20e="" d="M12,13.4285714 C8.84408714,13.4285714 6.28571429,10.8701986 6.28571429,7.71428571 C6.28571429,4.55837286 8.84408714,2 12,2 C15.1559129,2 17.7142857,4.55837286 17.7142857,7.71428571 C17.7142857,10.8701986 15.1559129,13.4285714 12,13.4285714 Z M21.3391667,17.682243 C21.6775,18.0293725 22,18.5100134 22,19.0111259 L22,22 L11.7408333,22 L2.00083333,22 L2.00083333,19.0111259 C2.00083333,18.5100134 2.095,18.0302626 2.435,17.682243 C3.90583333,16.1780151 7.4975,14.8571429 11.805,14.8571429 C16.1125,14.8571429 19.8658333,16.1789052 21.3391667,17.682243 Z" id="icon-with" data-v-0698e127=""></path> <!----> <!----> <!----></g></svg>