<svg data-v-e5c19db8="" width="24px" height="24px" viewBox="0 0 24 24" version="1.1" xmlns="http://www.w3.org/2000/svg" xmlns:xlink="http://www.w3.org/1999/xlink"><title>icon/24/collections</title> <desc>Created with Sketch.</desc> <defs></defs> <g id="icon/24/collections" stroke="none" stroke-width="1" fill="none" fill-rule="evenodd"><g id="baseline-collections_bookmark-24px"><polygon id="Shape" points="0 0 24 0 24 24 0 24"></polygon> <path d="M4,6 L2,6 L2,20 C2,21.1 2.9,22 4,22 L18,22 L18,20 L4,20 L4,6 Z" id="Shape" fill="#BDBDBD" fill-rule="nonzero"></path> <polygon id="Shape" points="0 0 24 0 24 24 0 24"></polygon> <path d="M20,2 L8,2 C6.9,2 6,2.9 6,4 L6,16 C6,17.1 6.9,18 8,18 L20,18 C21.1,18 22,17.1 22,16 L22,4 C22,2.9 21.1,2 20,2 Z M20,12 L17.5,10.5 L15,12 L15,4 L20,4 L20,12 Z" id="Shape" fill="#BDBDBD" fill-rule="nonzero"></path></g></g></svg>