<svg data-v-0698e127="" data-v-c65906cc="" xmlns="http://www.w3.org/2000/svg" xmlns:xlink="http://www.w3.org/1999/xlink" width="24" height="24" viewBox="0 0 24 24" aria-labelledby="ic_search" version="1.1"><defs data-v-0698e127=""></defs> <g data-v-0698e127="" id="Icons/account/ic_account" stroke="none" stroke-width="1" fill="rgba(0,0,0,0.54)" fill-rule="evenodd"><rect data-v-0698e127="" id="blue-background" fill-opacity="0" fill="#FFFFFF" x="0" y="0" width="24" height="24"></rect> <path data-v-c65906cc="" d="M16.8472,15.1496 L16.564,15.4328 L15.5056,14.3744 C16.5632,13.068 17.2,11.408 17.2,9.6 C17.2,5.4096 13.7904,2 9.6,2 C5.4096,2 2,5.4096 2,9.6 C2,13.7904 5.4096,17.2 9.6,17.2 C11.408,17.2 13.068,16.5632 14.3744,15.5056 L15.4328,16.564 L15.1496,16.8472 L19.9512,21.6488 L21.648,19.952 L16.8472,15.1496 L16.8472,15.1496 Z M9.6008,14.8 C6.7336,14.8 4.4008,12.4672 4.4008,9.6 C4.4008,6.7328 6.7336,4.4 9.6008,4.4 C12.468,4.4 14.8008,6.7328 14.8008,9.6 C14.8008,12.4672 12.4672,14.8 9.6008,14.8 L9.6008,14.8 Z" id="icon-search" data-v-0698e127=""></path></g></svg>