<svg data-v-0698e127="" data-v-c65906cc="" xmlns="http://www.w3.org/2000/svg" xmlns:xlink="http://www.w3.org/1999/xlink" width="24" height="24" viewBox="0 0 24 24" aria-labelledby="ic_view_by_time" version="1.1"><defs data-v-0698e127=""></defs> <g data-v-0698e127="" id="Icons/account/ic_account" stroke="none" stroke-width="1" fill="rgba(0,0,0,0.54)" fill-rule="evenodd"><rect data-v-0698e127="" id="blue-background" fill-opacity="0" fill="#FFFFFF" x="0" y="0" width="24" height="24"></rect> <path data-v-0698e127="" d="M21.9831525,10 L18.5,10 L18.5,11 L17,11 L17,10 L16.5834809,10 C15.8114517,8.23459741 14.0490273,7 12,7 C9.24,7 7,9.24 7,12 C7,14.5912586 8.97447379,16.7241572 11.5,16.9752745 L11.5,19.4895971 C6.71674598,19.2901826 2.672042,16.2429274 1,12 C2.73,7.61 7,4.5 12,4.5 C16.2047939,4.5 19.8872962,6.69503601 21.9831525,10 Z M22.5,10.8997351 C22.5172517,10.9330647 22.5343504,10.9664866 22.551295,11 L22.5,11 L22.5,10.8997351 Z M14.2348007,10 L13,10 L13,11 L11.5,11 L11.5,14.9583906 C10.0824015,14.7198722 9,13.4846738 9,12 C9,10.345 10.345,9 12,9 C12.8871479,9 13.6852205,9.38647232 14.2348007,10 Z"></path> <path data-v-0698e127="" d="M19.5,12 L16,12 L16,11 L14,11 L14,12 L13.5,12 C12.8554167,12 12.5,12.337 12.5,13 L12.5,22 C12.5,22.663 12.8554167,23 13.5,23 L22,23 C22.6445833,23 23,22.663 23,22 L23,13 C23,12.337 22.6445833,12 22,12 L21.5,12 L21.5,11 L19.5,11 L19.5,12 Z M13.5,22 L13.5,15 L22,15 L22,22 L13.5,22 Z M21,18 L18,18 L18,21 L21,21 L21,18 L21,18 Z"></path></g></svg>