<svg data-v-0624972a="" xmlns="http://www.w3.org/2000/svg" width="230" height="130" viewBox="0 0 230 130" class="logo-icon logo-desktop d-none d-sm-flex"><g id="Group_883" data-name="Group 883" transform="translate(-598 -30)"><g id="Group_3" data-name="Group 3" transform="translate(615 32)"><g id="Group_1" data-name="Group 1" transform="translate(0 96.263)"><path id="Path_1" data-name="Path 1" d="M97.021,39.229c-.758,3.032-3.032,3.79-6.064,3.79a5.79,5.79,0,0,1-3.79-1.516l1.516-3.032a2.785,2.785,0,0,0,2.274.758c1.516,0,2.274-.758,3.032-2.274l.758-1.516-7.58-17.433H90.2a2.348,2.348,0,0,1,1.516.758c1.516,3.032,5.306,12.128,5.306,12.128s3.79-9.1,4.548-12.128c0-.758,1.516-.758,1.516-.758h3.032ZM78.071,21.8c-3.032,0-4.548,1.516-5.306,4.548H83.377C82.619,23.312,81.1,21.8,78.071,21.8Zm8.338,7.58H72.766a5.537,5.537,0,0,0,5.306,4.548,6.881,6.881,0,0,0,5.306-2.274l2.274,2.274a11.58,11.58,0,0,1-7.58,3.032,8.757,8.757,0,0,1-9.1-9.1,8.757,8.757,0,0,1,9.1-9.1C84.135,18.764,87.167,23.312,86.409,29.375ZM62.154,36.2V26.344a3.581,3.581,0,0,0-3.79-3.79c-3.032,0-5.306,2.274-5.306,4.548v9.1h-3.79V19.522l3.79-.758v3.79a7.96,7.96,0,0,1,6.822-3.79q6.822,0,6.822,6.822V36.2H62.154ZM37.141,22.554a5.181,5.181,0,0,0-5.306,5.306c0,3.032,2.274,6.064,5.306,6.064s5.306-2.274,5.306-6.064A5.181,5.181,0,0,0,37.141,22.554Zm0,14.4a8.757,8.757,0,0,1-9.1-9.1,8.757,8.757,0,0,1,9.1-9.1,8.757,8.757,0,0,1,9.1,9.1A8.757,8.757,0,0,1,37.141,36.955ZM25.013,36.2h-3.79V19.522L14.4,33.165a2.348,2.348,0,0,1-1.516.758h-.758a2.348,2.348,0,0,1-1.516-.758L3.79,19.522V36.2H0V12.7H3.79a2.348,2.348,0,0,1,1.516.758c1.516,3.79,7.58,14.4,7.58,14.4s6.064-11.37,7.58-14.4a2.348,2.348,0,0,1,1.516-.758h3.79Z" transform="translate(0 -12.7)" fill="#fff"></path><path id="Path_2" data-name="Path 2" d="M89.239,27.2v9.1H85.45V19.622l3.79-.758v3.79c1.516-2.274,3.032-3.79,6.064-3.79V21.9C91.513,21.9,89.239,24.17,89.239,27.2ZM74.08,21.138c-3.032,0-4.548,1.516-5.306,4.548H79.386C78.628,23.412,77.112,21.138,74.08,21.138Zm8.338,7.58H68.774a5.537,5.537,0,0,0,5.306,4.548,6.881,6.881,0,0,0,5.306-2.274l2.274,2.274A11.58,11.58,0,0,1,74.08,36.3a8.757,8.757,0,0,1-9.1-9.1,8.757,8.757,0,0,1,9.1-9.1C80.144,18.106,83.176,22.654,82.418,28.717ZM58.163,36.3h-3.79L47.551,18.864h3.032a2.348,2.348,0,0,1,1.516.758c1.516,3.032,4.548,12.886,4.548,12.886s3.79-9.854,4.548-12.886c0-.758,1.516-.758,1.516-.758h3.032ZM37.7,21.9A5.181,5.181,0,0,0,32.391,27.2c0,3.032,2.274,6.064,5.306,6.064S43,30.991,43,27.2A5.181,5.181,0,0,0,37.7,21.9Zm0,14.4a8.757,8.757,0,0,1-9.1-9.1,8.757,8.757,0,0,1,9.1-9.1,8.757,8.757,0,0,1,9.1,9.1A8.757,8.757,0,0,1,37.7,36.3Zm-23.5-.758V12.8h3.032a.742.742,0,0,1,.758.758V32.507h8.338a.742.742,0,0,1,.758.758v2.274Z" transform="translate(101.291 -12.042)" fill="#fff"></path></g><g id="Group_2" data-name="Group 2" transform="translate(61.995)"><path id="Path_3" data-name="Path 3" d="M26.549.1H61.416A18.765,18.765,0,0,1,80.366,19.049V53.916A18.445,18.445,0,0,1,62.174,72.108H25.791A18.445,18.445,0,0,1,7.6,53.916V19.049A18.765,18.765,0,0,1,26.549.1Z" transform="translate(-7.6 0.658)" fill="#2db84c" fill-rule="evenodd"></path><path id="Path_4" data-name="Path 4" d="M25.791,0H62.174A18.445,18.445,0,0,1,80.366,18.191v7.58A18.445,18.445,0,0,1,62.174,43.963H25.791A18.445,18.445,0,0,1,7.6,25.771v-7.58A18.445,18.445,0,0,1,25.791,0Z" transform="translate(-7.6 0)" fill="#e2ece4" fill-rule="evenodd"></path><path id="Path_5" data-name="Path 5" d="M13.29,6.3a3.581,3.581,0,0,1,3.79,3.79,3.581,3.581,0,0,1-3.79,3.79c-1.516,0-3.79-2.274-3.79-3.79A4.06,4.06,0,0,1,13.29,6.3Z" transform="translate(4.901 41.452)" fill="#247936" fill-rule="evenodd"></path><path id="Path_6" data-name="Path 6" d="M22.37,6.8c6.064,0,11.37,3.79,11.37,9.1s-5.306,9.1-11.37,9.1S11,21.2,11,15.9,16.306,6.8,22.37,6.8Z" transform="translate(14.771 44.742)" fill="#70d185" fill-rule="evenodd"></path><path id="Path_7" data-name="Path 7" d="M12.631,7.7A2.42,2.42,0,0,1,14.9,9.974a1.63,1.63,0,0,1-1.516,1.516,1.63,1.63,0,0,1-1.516-1.516A1.452,1.452,0,0,1,12.631,7.7Z" transform="translate(18.446 50.664)" fill="#009421" fill-rule="evenodd"></path><path id="Path_8" data-name="Path 8" d="M11.874,3.9H45.225a1.63,1.63,0,0,1,1.516,1.516,1.63,1.63,0,0,1-1.516,1.516H11.874a1.63,1.63,0,0,1-1.516-1.516C9.6,4.658,10.358,3.9,11.874,3.9Z" transform="translate(8.591 25.661)" fill="#006015" fill-rule="evenodd"></path><path id="Path_9" data-name="Path 9" d="M25.66,1a14.392,14.392,0,0,1,14.4,14.4,15.357,15.357,0,0,1-4.548,10.612H15.806c-3.032-3.032-5.306-6.822-5.306-11.37C10.5,7.064,17.322,1,25.66,1Z" transform="translate(11.481 6.58)" fill="#ffce00" fill-rule="evenodd"></path><path id="Path_10" data-name="Path 10" d="M20.038,1.5V20.449H14.732V10.6c0-1.516-.758-.758-.758-.758H11.7V9.08a53.1,53.1,0,0,0,7.58-6.064C19.28,1.5,20.038,1.5,20.038,1.5Z" transform="translate(19.377 9.87)" fill="#fff" fill-rule="evenodd"></path><path id="Path_11" data-name="Path 11" d="M14.774,7.7A1.63,1.63,0,0,1,16.29,9.216a1.63,1.63,0,0,1-1.516,1.516,1.63,1.63,0,0,1-1.516-1.516C12.5,9.216,13.258,7.7,14.774,7.7Z" transform="translate(27.672 50.664)" fill="#009421" fill-rule="evenodd"></path><path id="Path_12" data-name="Path 12" d="M18.19,6.3a3.581,3.581,0,0,1,3.79,3.79,3.581,3.581,0,0,1-3.79,3.79,3.581,3.581,0,0,1-3.79-3.79A3.581,3.581,0,0,1,18.19,6.3Z" transform="translate(37.142 41.452)" fill="#247936" fill-rule="evenodd"></path></g></g><rect id="Rectangle_329" data-name="Rectangle 329" width="230" height="130" transform="translate(598 30)" fill="none"></rect></g></svg>